<?xml version="1.0" encoding="UTF-8" standalone="no"?>
<!DOCTYPE svg PUBLIC "-//W3C//DTD SVG 1.1//EN"
 "http://www.w3.org/Graphics/SVG/1.1/DTD/svg11.dtd">
<!-- Generated by graphviz version 2.43.0 (0)
 -->
<!-- Title: Grafo Pages: 1 -->
<svg width="1588pt" height="2091pt"
 viewBox="0.00 0.00 1588.17 2090.54" xmlns="http://www.w3.org/2000/svg" xmlns:xlink="http://www.w3.org/1999/xlink">
<g id="graph0" class="graph" transform="scale(1 1) rotate(0) translate(4 2086.54)">
<title>Grafo</title>
<polygon fill="white" stroke="transparent" points="-4,4 -4,-2086.54 1584.17,-2086.54 1584.17,4 -4,4"/>
<!-- n13 -->
<g id="node1" class="node">
<title>n13</title>
<ellipse fill="none" stroke="black" cx="1407.17" cy="-2055.67" rx="115.93" ry="26.74"/>
<text text-anchor="middle" x="1407.17" y="-2059.47" font-family="Times,serif" font-size="14.00">13</text>
<text text-anchor="middle" x="1407.17" y="-2044.47" font-family="Times,serif" font-size="14.00">Mini Súper San Juan</text>
</g>
<!-- n14 -->
<g id="node20" class="node">
<title>n14</title>
<ellipse fill="none" stroke="black" cx="1326.17" cy="-1950.93" rx="103.89" ry="26.74"/>
<text text-anchor="middle" x="1326.17" y="-1954.73" font-family="Times,serif" font-size="14.00">14</text>
<text text-anchor="middle" x="1326.17" y="-1939.73" font-family="Times,serif" font-size="14.00">Super Tienda Xela</text>
</g>
<!-- n13&#45;&gt;n14 -->
<g id="edge1" class="edge">
<title>n13&#45;&gt;n14</title>
<path fill="none" stroke="black" d="M1371.09,-2030.06C1364.23,-2024.28 1357.54,-2017.77 1352.17,-2010.8 1346.72,-2003.74 1342.15,-1995.37 1338.43,-1987.18"/>
<polygon fill="black" stroke="black" points="1341.56,-1985.6 1334.45,-1977.74 1335.11,-1988.32 1341.56,-1985.6"/>
<text text-anchor="middle" x="1405.67" y="-1999.6" font-family="Times,serif" font-size="14.00">t=10.0,p=15.0</text>
</g>
<!-- n26 -->
<g id="node2" class="node">
<title>n26</title>
<ellipse fill="none" stroke="black" cx="246.17" cy="-1636.71" rx="108.79" ry="26.74"/>
<text text-anchor="middle" x="246.17" y="-1640.51" font-family="Times,serif" font-size="14.00">26</text>
<text text-anchor="middle" x="246.17" y="-1625.51" font-family="Times,serif" font-size="14.00">Despensa Moderna</text>
</g>
<!-- n27 -->
<g id="node21" class="node">
<title>n27</title>
<ellipse fill="none" stroke="black" cx="246.17" cy="-1531.97" rx="121.74" ry="26.74"/>
<text text-anchor="middle" x="246.17" y="-1535.77" font-family="Times,serif" font-size="14.00">27</text>
<text text-anchor="middle" x="246.17" y="-1520.77" font-family="Times,serif" font-size="14.00">Mini Súper Las Rosas</text>
</g>
<!-- n26&#45;&gt;n27 -->
<g id="edge2" class="edge">
<title>n26&#45;&gt;n27</title>
<path fill="none" stroke="black" d="M246.17,-1609.79C246.17,-1597.5 246.17,-1582.61 246.17,-1569.22"/>
<polygon fill="black" stroke="black" points="249.67,-1568.89 246.17,-1558.89 242.67,-1568.89 249.67,-1568.89"/>
<text text-anchor="middle" x="295.17" y="-1580.64" font-family="Times,serif" font-size="14.00">t=8.0,p=12.0</text>
</g>
<!-- n5 -->
<g id="node3" class="node">
<title>n5</title>
<ellipse fill="none" stroke="black" cx="1118.17" cy="-864.79" rx="108.38" ry="26.74"/>
<text text-anchor="middle" x="1118.17" y="-868.59" font-family="Times,serif" font-size="14.00">5</text>
<text text-anchor="middle" x="1118.17" y="-853.59" font-family="Times,serif" font-size="14.00">Bodega Intermedia</text>
</g>
<!-- n12 -->
<g id="node12" class="node">
<title>n12</title>
<ellipse fill="none" stroke="black" cx="1208.17" cy="-26.87" rx="132.87" ry="26.74"/>
<text text-anchor="middle" x="1208.17" y="-30.67" font-family="Times,serif" font-size="14.00">12</text>
<text text-anchor="middle" x="1208.17" y="-15.67" font-family="Times,serif" font-size="14.00">Distribuidora Occidente</text>
</g>
<!-- n5&#45;&gt;n12 -->
<g id="edge3" class="edge">
<title>n5&#45;&gt;n12</title>
<path fill="none" stroke="black" d="M1155.2,-839.19C1178.11,-820.75 1203.17,-793.23 1203.17,-761.05 1203.17,-761.05 1203.17,-761.05 1203.17,-497.2 1203.17,-428.23 1208.17,-411.06 1208.17,-342.09 1208.17,-342.09 1208.17,-342.09 1208.17,-130.61 1208.17,-108.54 1208.17,-83.79 1208.17,-64.12"/>
<polygon fill="black" stroke="black" points="1211.67,-64.05 1208.17,-54.05 1204.67,-64.05 1211.67,-64.05"/>
<text text-anchor="middle" x="1258.67" y="-442.13" font-family="Times,serif" font-size="14.00">t=35.0,p=55.0</text>
</g>
<!-- n3 -->
<g id="node26" class="node">
<title>n3</title>
<ellipse fill="none" stroke="black" cx="885.17" cy="-760.05" rx="69.09" ry="26.74"/>
<text text-anchor="middle" x="885.17" y="-763.85" font-family="Times,serif" font-size="14.00">3</text>
<text text-anchor="middle" x="885.17" y="-748.85" font-family="Times,serif" font-size="14.00">Market Sur</text>
</g>
<!-- n5&#45;&gt;n3 -->
<g id="edge4" class="edge">
<title>n5&#45;&gt;n3</title>
<path fill="none" stroke="black" d="M1038.95,-846.46C990.17,-835.57 936.02,-823.03 931.17,-819.92 921.11,-813.49 912.34,-804.07 905.23,-794.65"/>
<polygon fill="black" stroke="black" points="908.05,-792.58 899.42,-786.44 902.34,-796.62 908.05,-792.58"/>
<text text-anchor="middle" x="984.67" y="-808.72" font-family="Times,serif" font-size="14.00">t=20.0,p=35.0</text>
</g>
<!-- n18 -->
<g id="node4" class="node">
<title>n18</title>
<ellipse fill="none" stroke="black" cx="1310.17" cy="-1460.23" rx="103.48" ry="26.74"/>
<text text-anchor="middle" x="1310.17" y="-1464.03" font-family="Times,serif" font-size="14.00">18</text>
<text text-anchor="middle" x="1310.17" y="-1449.03" font-family="Times,serif" font-size="14.00">Market El Rosario</text>
</g>
<!-- n19 -->
<g id="node23" class="node">
<title>n19</title>
<ellipse fill="none" stroke="black" cx="725.17" cy="-236.35" rx="123.99" ry="26.74"/>
<text text-anchor="middle" x="725.17" y="-240.15" font-family="Times,serif" font-size="14.00">19</text>
<text text-anchor="middle" x="725.17" y="-225.15" font-family="Times,serif" font-size="14.00">Super Express Centro</text>
</g>
<!-- n18&#45;&gt;n19 -->
<g id="edge5" class="edge">
<title>n18&#45;&gt;n19</title>
<path fill="none" stroke="black" d="M1319.65,-1433.42C1327.77,-1408.97 1338.17,-1371.05 1338.17,-1337.12 1338.17,-1337.12 1338.17,-1337.12 1338.17,-340.09 1338.17,-231.85 964.22,-279.22 857.17,-263.22 845.71,-261.51 833.73,-259.49 821.87,-257.34"/>
<polygon fill="black" stroke="black" points="822.42,-253.89 811.95,-255.52 821.15,-260.77 822.42,-253.89"/>
<text text-anchor="middle" x="1391.67" y="-861.09" font-family="Times,serif" font-size="14.00">t=25.0,p=38.0</text>
</g>
<!-- n10 -->
<g id="node5" class="node">
<title>n10</title>
<ellipse fill="none" stroke="black" cx="969.17" cy="-236.35" rx="102.56" ry="26.74"/>
<text text-anchor="middle" x="969.17" y="-240.15" font-family="Times,serif" font-size="14.00">10</text>
<text text-anchor="middle" x="969.17" y="-225.15" font-family="Times,serif" font-size="14.00">Tienda El Carmen</text>
</g>
<!-- n20 -->
<g id="node11" class="node">
<title>n20</title>
<ellipse fill="none" stroke="black" cx="620.17" cy="-131.61" rx="135.53" ry="26.74"/>
<text text-anchor="middle" x="620.17" y="-135.41" font-family="Times,serif" font-size="14.00">20</text>
<text text-anchor="middle" x="620.17" y="-120.41" font-family="Times,serif" font-size="14.00">Mini Market La Reforma</text>
</g>
<!-- n10&#45;&gt;n20 -->
<g id="edge6" class="edge">
<title>n10&#45;&gt;n20</title>
<path fill="none" stroke="black" d="M903.2,-215.62C864.71,-204.14 815.21,-189.42 771.17,-176.48 749.59,-170.14 726.26,-163.33 704.55,-157.02"/>
<polygon fill="black" stroke="black" points="705.27,-153.59 694.69,-154.16 703.32,-160.31 705.27,-153.59"/>
<text text-anchor="middle" x="868.17" y="-180.28" font-family="Times,serif" font-size="14.00">t=9.0,p=13.0</text>
</g>
<!-- n11 -->
<g id="node24" class="node">
<title>n11</title>
<ellipse fill="none" stroke="black" cx="1053.17" cy="-131.61" rx="126.64" ry="26.74"/>
<text text-anchor="middle" x="1053.17" y="-135.41" font-family="Times,serif" font-size="14.00">11</text>
<text text-anchor="middle" x="1053.17" y="-120.41" font-family="Times,serif" font-size="14.00">Market La Democracia</text>
</g>
<!-- n10&#45;&gt;n11 -->
<g id="edge7" class="edge">
<title>n10&#45;&gt;n11</title>
<path fill="none" stroke="black" d="M968.89,-209.21C969.9,-198.29 972.65,-185.96 979.17,-176.48 982.77,-171.23 987.23,-166.51 992.16,-162.29"/>
<polygon fill="black" stroke="black" points="994.45,-164.95 1000.24,-156.07 990.18,-159.4 994.45,-164.95"/>
<text text-anchor="middle" x="1032.67" y="-180.28" font-family="Times,serif" font-size="14.00">t=14.0,p=22.0</text>
</g>
<!-- n23 -->
<g id="node6" class="node">
<title>n23</title>
<ellipse fill="none" stroke="black" cx="396.17" cy="-341.09" rx="135.11" ry="26.74"/>
<text text-anchor="middle" x="396.17" y="-344.89" font-family="Times,serif" font-size="14.00">23</text>
<text text-anchor="middle" x="396.17" y="-329.89" font-family="Times,serif" font-size="14.00">Super Tienda Almolonga</text>
</g>
<!-- n24 -->
<g id="node25" class="node">
<title>n24</title>
<ellipse fill="none" stroke="black" cx="96.17" cy="-236.35" rx="96.33" ry="26.74"/>
<text text-anchor="middle" x="96.17" y="-240.15" font-family="Times,serif" font-size="14.00">24</text>
<text text-anchor="middle" x="96.17" y="-225.15" font-family="Times,serif" font-size="14.00">Tienda La Colina</text>
</g>
<!-- n23&#45;&gt;n24 -->
<g id="edge8" class="edge">
<title>n23&#45;&gt;n24</title>
<path fill="none" stroke="black" d="M330.33,-317.54C281.34,-300.76 214.63,-277.92 164.94,-260.9"/>
<polygon fill="black" stroke="black" points="165.84,-257.51 155.24,-257.58 163.57,-264.13 165.84,-257.51"/>
<text text-anchor="middle" x="316.67" y="-285.02" font-family="Times,serif" font-size="14.00">t=18.0,p=26.0</text>
</g>
<!-- n2 -->
<g id="node7" class="node">
<title>n2</title>
<ellipse fill="none" stroke="black" cx="885.17" cy="-969.53" rx="92.76" ry="26.74"/>
<text text-anchor="middle" x="885.17" y="-973.33" font-family="Times,serif" font-size="14.00">2</text>
<text text-anchor="middle" x="885.17" y="-958.33" font-family="Times,serif" font-size="14.00">Despensa Norte</text>
</g>
<!-- n2&#45;&gt;n5 -->
<g id="edge9" class="edge">
<title>n2&#45;&gt;n5</title>
<path fill="none" stroke="black" d="M934.58,-946.74C970.29,-931 1018.76,-909.62 1056.93,-892.79"/>
<polygon fill="black" stroke="black" points="1058.66,-895.85 1066.4,-888.62 1055.84,-889.45 1058.66,-895.85"/>
<text text-anchor="middle" x="1073.17" y="-913.46" font-family="Times,serif" font-size="14.00">t=60.0,p=100.0</text>
</g>
<!-- n2&#45;&gt;n3 -->
<g id="edge10" class="edge">
<title>n2&#45;&gt;n3</title>
<path fill="none" stroke="black" d="M885.17,-942.25C885.17,-905.54 885.17,-838.75 885.17,-797.32"/>
<polygon fill="black" stroke="black" points="888.67,-797.11 885.17,-787.12 881.67,-797.12 888.67,-797.11"/>
<text text-anchor="middle" x="938.67" y="-861.09" font-family="Times,serif" font-size="14.00">t=20.0,p=35.0</text>
</g>
<!-- n15 -->
<g id="node8" class="node">
<title>n15</title>
<ellipse fill="none" stroke="black" cx="1282.17" cy="-1846.19" rx="111.95" ry="26.74"/>
<text text-anchor="middle" x="1282.17" y="-1849.99" font-family="Times,serif" font-size="14.00">15</text>
<text text-anchor="middle" x="1282.17" y="-1834.99" font-family="Times,serif" font-size="14.00">Comercial El Trébol</text>
</g>
<!-- n25 -->
<g id="node13" class="node">
<title>n25</title>
<ellipse fill="none" stroke="black" cx="246.17" cy="-1741.45" rx="98.99" ry="26.74"/>
<text text-anchor="middle" x="246.17" y="-1745.25" font-family="Times,serif" font-size="14.00">25</text>
<text text-anchor="middle" x="246.17" y="-1730.25" font-family="Times,serif" font-size="14.00">Market Central 2</text>
</g>
<!-- n15&#45;&gt;n25 -->
<g id="edge11" class="edge">
<title>n15&#45;&gt;n25</title>
<path fill="none" stroke="black" d="M1180,-1835.06C981.68,-1815.39 546.67,-1772.25 348.34,-1752.58"/>
<polygon fill="black" stroke="black" points="348.51,-1749.08 338.22,-1751.58 347.82,-1756.05 348.51,-1749.08"/>
<text text-anchor="middle" x="879.67" y="-1790.12" font-family="Times,serif" font-size="14.00">t=18.0,p=28.0</text>
</g>
<!-- n16 -->
<g id="node27" class="node">
<title>n16</title>
<ellipse fill="none" stroke="black" cx="1282.17" cy="-1741.45" rx="162.77" ry="26.74"/>
<text text-anchor="middle" x="1282.17" y="-1745.25" font-family="Times,serif" font-size="14.00">16</text>
<text text-anchor="middle" x="1282.17" y="-1730.25" font-family="Times,serif" font-size="14.00">Tienda Familiar La Esperanza</text>
</g>
<!-- n15&#45;&gt;n16 -->
<g id="edge12" class="edge">
<title>n15&#45;&gt;n16</title>
<path fill="none" stroke="black" d="M1282.17,-1819.27C1282.17,-1806.98 1282.17,-1792.09 1282.17,-1778.7"/>
<polygon fill="black" stroke="black" points="1285.67,-1778.37 1282.17,-1768.37 1278.67,-1778.37 1285.67,-1778.37"/>
<text text-anchor="middle" x="1335.67" y="-1790.12" font-family="Times,serif" font-size="14.00">t=12.0,p=18.0</text>
</g>
<!-- n28 -->
<g id="node9" class="node">
<title>n28</title>
<ellipse fill="none" stroke="black" cx="246.17" cy="-1388.49" rx="89.19" ry="26.74"/>
<text text-anchor="middle" x="246.17" y="-1392.29" font-family="Times,serif" font-size="14.00">28</text>
<text text-anchor="middle" x="246.17" y="-1377.29" font-family="Times,serif" font-size="14.00">Super Ahorro 2</text>
</g>
<!-- n29 -->
<g id="node28" class="node">
<title>n29</title>
<ellipse fill="none" stroke="black" cx="462.17" cy="-1283.75" rx="99.9" ry="26.74"/>
<text text-anchor="middle" x="462.17" y="-1287.55" font-family="Times,serif" font-size="14.00">29</text>
<text text-anchor="middle" x="462.17" y="-1272.55" font-family="Times,serif" font-size="14.00">Tienda El Bosque</text>
</g>
<!-- n28&#45;&gt;n29 -->
<g id="edge13" class="edge">
<title>n28&#45;&gt;n29</title>
<path fill="none" stroke="black" d="M292.5,-1365.45C325.5,-1349.75 370.05,-1328.56 405.22,-1311.84"/>
<polygon fill="black" stroke="black" points="406.88,-1314.92 414.41,-1307.47 403.88,-1308.6 406.88,-1314.92"/>
<text text-anchor="middle" x="419.67" y="-1332.42" font-family="Times,serif" font-size="14.00">t=15.0,p=22.0</text>
</g>
<!-- n7 -->
<g id="node10" class="node">
<title>n7</title>
<ellipse fill="none" stroke="black" cx="846.17" cy="-550.57" rx="125.73" ry="26.74"/>
<text text-anchor="middle" x="846.17" y="-554.37" font-family="Times,serif" font-size="14.00">7</text>
<text text-anchor="middle" x="846.17" y="-539.37" font-family="Times,serif" font-size="14.00">Mini Market El Centro</text>
</g>
<!-- n7&#45;&gt;n19 -->
<g id="edge14" class="edge">
<title>n7&#45;&gt;n19</title>
<path fill="none" stroke="black" d="M815.33,-524.27C800.32,-510.46 783.18,-492.22 772.17,-472.7 736.2,-408.98 727.46,-321.93 725.52,-273.54"/>
<polygon fill="black" stroke="black" points="729.02,-273.42 725.19,-263.54 722.02,-273.65 729.02,-273.42"/>
<text text-anchor="middle" x="796.67" y="-389.76" font-family="Times,serif" font-size="14.00">t=22.0,p=35.0</text>
</g>
<!-- n8 -->
<g id="node29" class="node">
<title>n8</title>
<ellipse fill="none" stroke="black" cx="861.17" cy="-445.83" rx="79.81" ry="26.74"/>
<text text-anchor="middle" x="861.17" y="-449.63" font-family="Times,serif" font-size="14.00">8</text>
<text text-anchor="middle" x="861.17" y="-434.63" font-family="Times,serif" font-size="14.00">Super Ahorro</text>
</g>
<!-- n7&#45;&gt;n8 -->
<g id="edge15" class="edge">
<title>n7&#45;&gt;n8</title>
<path fill="none" stroke="black" d="M849.95,-523.64C851.76,-511.23 853.96,-496.17 855.93,-482.68"/>
<polygon fill="black" stroke="black" points="859.4,-483.15 857.38,-472.75 852.47,-482.14 859.4,-483.15"/>
<text text-anchor="middle" x="907.67" y="-494.5" font-family="Times,serif" font-size="14.00">t=18.0,p=28.0</text>
</g>
<!-- n20&#45;&gt;n28 -->
<g id="edge16" class="edge">
<title>n20&#45;&gt;n28</title>
<path fill="none" stroke="black" d="M493.61,-141.45C378.39,-153.09 226.17,-179.11 226.17,-235.35 226.17,-1284.75 226.17,-1284.75 226.17,-1284.75 226.17,-1307.34 230.88,-1332.22 235.74,-1351.84"/>
<polygon fill="black" stroke="black" points="232.36,-1352.78 238.26,-1361.58 239.14,-1351.02 232.36,-1352.78"/>
<text text-anchor="middle" x="279.67" y="-756.35" font-family="Times,serif" font-size="14.00">t=35.0,p=50.0</text>
</g>
<!-- n1 -->
<g id="node19" class="node">
<title>n1</title>
<ellipse fill="none" stroke="black" cx="624.17" cy="-1074.27" rx="126.64" ry="26.74"/>
<text text-anchor="middle" x="624.17" y="-1078.07" font-family="Times,serif" font-size="14.00">1</text>
<text text-anchor="middle" x="624.17" y="-1063.07" font-family="Times,serif" font-size="14.00">Supermercado Central</text>
</g>
<!-- n20&#45;&gt;n1 -->
<g id="edge17" class="edge">
<title>n20&#45;&gt;n1</title>
<path fill="none" stroke="black" d="M608.3,-158.7C602.26,-173.31 595.51,-192.04 592.17,-209.48 563.7,-357.99 582.17,-398.35 582.17,-549.57 582.17,-970.53 582.17,-970.53 582.17,-970.53 582.17,-994.38 591.98,-1019.18 602.12,-1038.44"/>
<polygon fill="black" stroke="black" points="599.18,-1040.36 607.08,-1047.42 605.31,-1036.97 599.18,-1040.36"/>
<text text-anchor="middle" x="635.67" y="-599.24" font-family="Times,serif" font-size="14.00">t=10.0,p=14.0</text>
</g>
<!-- n12&#45;&gt;n13 -->
<g id="edge18" class="edge">
<title>n12&#45;&gt;n13</title>
<path fill="none" stroke="black" d="M1301.97,-45.96C1378.2,-63.44 1473.17,-92.8 1473.17,-130.61 1473.17,-1951.93 1473.17,-1951.93 1473.17,-1951.93 1473.17,-1978.83 1473.26,-1987.9 1459.17,-2010.8 1456.59,-2014.98 1453.49,-2018.96 1450.08,-2022.7"/>
<polygon fill="black" stroke="black" points="1447.37,-2020.46 1442.77,-2030 1452.32,-2025.41 1447.37,-2020.46"/>
<text text-anchor="middle" x="1526.67" y="-1018.2" font-family="Times,serif" font-size="14.00">t=30.0,p=45.0</text>
</g>
<!-- n25&#45;&gt;n26 -->
<g id="edge19" class="edge">
<title>n25&#45;&gt;n26</title>
<path fill="none" stroke="black" d="M246.17,-1714.53C246.17,-1702.24 246.17,-1687.35 246.17,-1673.96"/>
<polygon fill="black" stroke="black" points="249.67,-1673.63 246.17,-1663.63 242.67,-1673.63 249.67,-1673.63"/>
<text text-anchor="middle" x="299.67" y="-1685.38" font-family="Times,serif" font-size="14.00">t=14.0,p=20.0</text>
</g>
<!-- n4 -->
<g id="node14" class="node">
<title>n4</title>
<ellipse fill="none" stroke="black" cx="765.17" cy="-655.31" rx="94.09" ry="26.74"/>
<text text-anchor="middle" x="765.17" y="-659.11" font-family="Times,serif" font-size="14.00">4</text>
<text text-anchor="middle" x="765.17" y="-644.11" font-family="Times,serif" font-size="14.00">Express Oriente</text>
</g>
<!-- n4&#45;&gt;n5 -->
<g id="edge22" class="edge">
<title>n4&#45;&gt;n5</title>
<path fill="none" stroke="black" d="M831.64,-674.46C843.73,-677.34 856.28,-680.07 868.17,-682.18 905.57,-688.82 1007.05,-678.39 1038.17,-700.18 1041.07,-702.21 1079.05,-781.45 1101.62,-828.89"/>
<polygon fill="black" stroke="black" points="1098.46,-830.39 1105.91,-837.92 1104.78,-827.39 1098.46,-830.39"/>
<text text-anchor="middle" x="1133.67" y="-756.35" font-family="Times,serif" font-size="14.00">t=30.0,p=50.0</text>
</g>
<!-- n4&#45;&gt;n7 -->
<g id="edge21" class="edge">
<title>n4&#45;&gt;n7</title>
<path fill="none" stroke="black" d="M801.4,-630.32C808.58,-624.42 815.61,-617.69 821.17,-610.44 826.56,-603.41 831.01,-595.04 834.6,-586.86"/>
<polygon fill="black" stroke="black" points="837.91,-588 838.41,-577.42 831.42,-585.38 837.91,-588"/>
<text text-anchor="middle" x="883.67" y="-599.24" font-family="Times,serif" font-size="14.00">t=12.0,p=18.0</text>
</g>
<!-- n21 -->
<g id="node30" class="node">
<title>n21</title>
<ellipse fill="none" stroke="black" cx="404.17" cy="-550.57" rx="149.81" ry="26.74"/>
<text text-anchor="middle" x="404.17" y="-554.37" font-family="Times,serif" font-size="14.00">21</text>
<text text-anchor="middle" x="404.17" y="-539.37" font-family="Times,serif" font-size="14.00">Bodega Regional Occidente</text>
</g>
<!-- n4&#45;&gt;n21 -->
<g id="edge20" class="edge">
<title>n4&#45;&gt;n21</title>
<path fill="none" stroke="black" d="M734.41,-629.77C714.23,-613.68 691.5,-595.59 691.17,-595.44 649.62,-577.29 601.84,-566.48 557.33,-560.09"/>
<polygon fill="black" stroke="black" points="557.68,-556.61 547.29,-558.72 556.73,-563.54 557.68,-556.61"/>
<text text-anchor="middle" x="762.67" y="-599.24" font-family="Times,serif" font-size="14.00">t=20.0,p=30.0</text>
</g>
<!-- n17 -->
<g id="node15" class="node">
<title>n17</title>
<ellipse fill="none" stroke="black" cx="1289.17" cy="-1636.71" rx="102.56" ry="26.74"/>
<text text-anchor="middle" x="1289.17" y="-1640.51" font-family="Times,serif" font-size="14.00">17</text>
<text text-anchor="middle" x="1289.17" y="-1625.51" font-family="Times,serif" font-size="14.00">Despensa Popular</text>
</g>
<!-- n17&#45;&gt;n18 -->
<g id="edge23" class="edge">
<title>n17&#45;&gt;n18</title>
<path fill="none" stroke="black" d="M1292.31,-1609.59C1295.89,-1579.82 1301.77,-1530.98 1305.8,-1497.52"/>
<polygon fill="black" stroke="black" points="1309.32,-1497.59 1307.04,-1487.25 1302.37,-1496.76 1309.32,-1497.59"/>
<text text-anchor="middle" x="1348.67" y="-1580.64" font-family="Times,serif" font-size="14.00">t=20.0,p=30.0</text>
</g>
<!-- n30 -->
<g id="node16" class="node">
<title>n30</title>
<ellipse fill="none" stroke="black" cx="524.17" cy="-1179.01" rx="143.59" ry="26.74"/>
<text text-anchor="middle" x="524.17" y="-1182.81" font-family="Times,serif" font-size="14.00">30</text>
<text text-anchor="middle" x="524.17" y="-1167.81" font-family="Times,serif" font-size="14.00">Comercial La Esperanza 2</text>
</g>
<!-- n30&#45;&gt;n1 -->
<g id="edge24" class="edge">
<title>n30&#45;&gt;n1</title>
<path fill="none" stroke="black" d="M549.14,-1152.35C562.15,-1138.99 578.2,-1122.5 592.11,-1108.21"/>
<polygon fill="black" stroke="black" points="594.7,-1110.57 599.16,-1100.96 589.68,-1105.69 594.7,-1110.57"/>
<text text-anchor="middle" x="632.67" y="-1122.94" font-family="Times,serif" font-size="14.00">t=28.0,p=42.0</text>
</g>
<!-- n9 -->
<g id="node17" class="node">
<title>n9</title>
<ellipse fill="none" stroke="black" cx="879.17" cy="-341.09" rx="125.73" ry="26.74"/>
<text text-anchor="middle" x="879.17" y="-344.89" font-family="Times,serif" font-size="14.00">9</text>
<text text-anchor="middle" x="879.17" y="-329.89" font-family="Times,serif" font-size="14.00">Comercial La Terminal</text>
</g>
<!-- n9&#45;&gt;n10 -->
<g id="edge26" class="edge">
<title>n9&#45;&gt;n10</title>
<path fill="none" stroke="black" d="M901.65,-314.43C913.33,-301.09 927.75,-284.63 940.25,-270.36"/>
<polygon fill="black" stroke="black" points="943.02,-272.51 946.97,-262.68 937.75,-267.9 943.02,-272.51"/>
<text text-anchor="middle" x="978.17" y="-285.02" font-family="Times,serif" font-size="14.00">t=7.0,p=10.0</text>
</g>
<!-- n9&#45;&gt;n19 -->
<g id="edge25" class="edge">
<title>n9&#45;&gt;n19</title>
<path fill="none" stroke="black" d="M837.71,-315.56C827.62,-309.39 816.93,-302.69 807.17,-296.22 793.86,-287.41 779.65,-277.42 766.85,-268.2"/>
<polygon fill="black" stroke="black" points="768.83,-265.31 758.68,-262.28 764.72,-270.98 768.83,-265.31"/>
<text text-anchor="middle" x="860.67" y="-285.02" font-family="Times,serif" font-size="14.00">t=18.0,p=28.0</text>
</g>
<!-- n22 -->
<g id="node18" class="node">
<title>n22</title>
<ellipse fill="none" stroke="black" cx="399.17" cy="-445.83" rx="140.01" ry="26.74"/>
<text text-anchor="middle" x="399.17" y="-449.63" font-family="Times,serif" font-size="14.00">22</text>
<text text-anchor="middle" x="399.17" y="-434.63" font-family="Times,serif" font-size="14.00">Distribuidora San Andrés</text>
</g>
<!-- n22&#45;&gt;n23 -->
<g id="edge27" class="edge">
<title>n22&#45;&gt;n23</title>
<path fill="none" stroke="black" d="M398.41,-418.9C398.05,-406.62 397.62,-391.73 397.23,-378.34"/>
<polygon fill="black" stroke="black" points="400.71,-377.9 396.92,-368.01 393.72,-378.11 400.71,-377.9"/>
<text text-anchor="middle" x="450.67" y="-389.76" font-family="Times,serif" font-size="14.00">t=10.0,p=14.0</text>
</g>
<!-- n1&#45;&gt;n2 -->
<g id="edge31" class="edge">
<title>n1&#45;&gt;n2</title>
<path fill="none" stroke="black" d="M705.5,-1053.53C728.99,-1046.88 754.41,-1038.73 777.17,-1029.4 797.71,-1020.98 819.39,-1009.68 837.88,-999.24"/>
<polygon fill="black" stroke="black" points="839.75,-1002.21 846.69,-994.2 836.27,-996.13 839.75,-1002.21"/>
<text text-anchor="middle" x="851.67" y="-1018.2" font-family="Times,serif" font-size="14.00">t=5.0,p=5.0</text>
</g>
<!-- n1&#45;&gt;n4 -->
<g id="edge29" class="edge">
<title>n1&#45;&gt;n4</title>
<path fill="none" stroke="black" d="M625.75,-1047.1C626.87,-1026.34 628.17,-996.59 628.17,-970.53 628.17,-970.53 628.17,-970.53 628.17,-759.05 628.17,-721.82 660.95,-696.43 694.44,-680.2"/>
<polygon fill="black" stroke="black" points="696.25,-683.22 703.88,-675.87 693.33,-676.86 696.25,-683.22"/>
<text text-anchor="middle" x="681.67" y="-861.09" font-family="Times,serif" font-size="14.00">t=25.0,p=40.0</text>
</g>
<!-- n1&#45;&gt;n3 -->
<g id="edge30" class="edge">
<title>n1&#45;&gt;n3</title>
<path fill="none" stroke="black" d="M645.53,-1047.72C692.6,-991.41 805.23,-856.67 857.57,-794.06"/>
<polygon fill="black" stroke="black" points="860.51,-796 864.24,-786.08 855.14,-791.51 860.51,-796"/>
<text text-anchor="middle" x="813.67" y="-913.46" font-family="Times,serif" font-size="14.00">t=45.0,p=60.0</text>
</g>
<!-- n1&#45;&gt;n21 -->
<g id="edge28" class="edge">
<title>n1&#45;&gt;n21</title>
<path fill="none" stroke="black" d="M525.35,-1057.38C478.31,-1043.6 432.17,-1017.98 432.17,-970.53 432.17,-970.53 432.17,-970.53 432.17,-654.31 432.17,-631.48 425.65,-606.77 418.91,-587.31"/>
<polygon fill="black" stroke="black" points="422.1,-585.85 415.39,-577.65 415.52,-588.24 422.1,-585.85"/>
<text text-anchor="middle" x="485.67" y="-808.72" font-family="Times,serif" font-size="14.00">t=12.0,p=18.0</text>
</g>
<!-- n14&#45;&gt;n15 -->
<g id="edge32" class="edge">
<title>n14&#45;&gt;n15</title>
<path fill="none" stroke="black" d="M1315.06,-1924.01C1309.7,-1911.47 1303.17,-1896.24 1297.35,-1882.65"/>
<polygon fill="black" stroke="black" points="1300.42,-1880.92 1293.27,-1873.11 1293.99,-1883.68 1300.42,-1880.92"/>
<text text-anchor="middle" x="1355.17" y="-1894.86" font-family="Times,serif" font-size="14.00">t=8.0,p=12.0</text>
</g>
<!-- n27&#45;&gt;n28 -->
<g id="edge33" class="edge">
<title>n27&#45;&gt;n28</title>
<path fill="none" stroke="black" d="M246.17,-1505.02C246.17,-1482.83 246.17,-1450.63 246.17,-1425.87"/>
<polygon fill="black" stroke="black" points="249.67,-1425.76 246.17,-1415.76 242.67,-1425.76 249.67,-1425.76"/>
<text text-anchor="middle" x="299.67" y="-1456.53" font-family="Times,serif" font-size="14.00">t=25.0,p=38.0</text>
</g>
<!-- n6 -->
<g id="node22" class="node">
<title>n6</title>
<ellipse fill="none" stroke="black" cx="978.17" cy="-655.31" rx="101.23" ry="26.74"/>
<text text-anchor="middle" x="978.17" y="-659.11" font-family="Times,serif" font-size="14.00">6</text>
<text text-anchor="middle" x="978.17" y="-644.11" font-family="Times,serif" font-size="14.00">Tienda Las Flores</text>
</g>
<!-- n6&#45;&gt;n7 -->
<g id="edge35" class="edge">
<title>n6&#45;&gt;n7</title>
<path fill="none" stroke="black" d="M966.18,-628.45C959.97,-617.19 951.5,-604.53 941.17,-595.44 934.08,-589.21 925.95,-583.7 917.51,-578.88"/>
<polygon fill="black" stroke="black" points="919.08,-575.75 908.62,-574.1 915.77,-581.92 919.08,-575.75"/>
<text text-anchor="middle" x="1002.17" y="-599.24" font-family="Times,serif" font-size="14.00">t=8.0,p=12.0</text>
</g>
<!-- n6&#45;&gt;n11 -->
<g id="edge34" class="edge">
<title>n6&#45;&gt;n11</title>
<path fill="none" stroke="black" d="M1032.71,-632.39C1041.52,-626.52 1049.58,-619.28 1055.17,-610.44 1096.52,-545.04 1075.59,-340.4 1081.17,-263.22 1083.95,-224.71 1098.4,-213.11 1086.17,-176.48 1085.11,-173.32 1083.72,-170.2 1082.12,-167.17"/>
<polygon fill="black" stroke="black" points="1084.97,-165.12 1076.77,-158.41 1079,-168.77 1084.97,-165.12"/>
<text text-anchor="middle" x="1134.67" y="-389.76" font-family="Times,serif" font-size="14.00">t=20.0,p=30.0</text>
</g>
<!-- n19&#45;&gt;n20 -->
<g id="edge36" class="edge">
<title>n19&#45;&gt;n20</title>
<path fill="none" stroke="black" d="M699.21,-209.95C685.46,-196.49 668.4,-179.81 653.66,-165.38"/>
<polygon fill="black" stroke="black" points="655.78,-162.56 646.19,-158.07 650.89,-167.57 655.78,-162.56"/>
<text text-anchor="middle" x="722.67" y="-180.28" font-family="Times,serif" font-size="14.00">t=5.0,p=8.0</text>
</g>
<!-- n11&#45;&gt;n12 -->
<g id="edge37" class="edge">
<title>n11&#45;&gt;n12</title>
<path fill="none" stroke="black" d="M1063.28,-104.64C1068.85,-93.22 1076.76,-80.46 1087.17,-71.74 1096.27,-64.12 1106.8,-57.77 1117.78,-52.49"/>
<polygon fill="black" stroke="black" points="1119.4,-55.6 1127.09,-48.31 1116.53,-49.22 1119.4,-55.6"/>
<text text-anchor="middle" x="1140.67" y="-75.54" font-family="Times,serif" font-size="14.00">t=25.0,p=38.0</text>
</g>
<!-- n24&#45;&gt;n25 -->
<g id="edge38" class="edge">
<title>n24&#45;&gt;n25</title>
<path fill="none" stroke="black" d="M94.19,-263.51C92.79,-284.27 91.17,-314.02 91.17,-340.09 91.17,-1637.71 91.17,-1637.71 91.17,-1637.71 91.17,-1677.89 127.8,-1703.29 165.45,-1718.77"/>
<polygon fill="black" stroke="black" points="164.43,-1722.13 175.02,-1722.5 166.97,-1715.61 164.43,-1722.13"/>
<text text-anchor="middle" x="144.67" y="-965.83" font-family="Times,serif" font-size="14.00">t=22.0,p=32.0</text>
</g>
<!-- n3&#45;&gt;n4 -->
<g id="edge40" class="edge">
<title>n3&#45;&gt;n4</title>
<path fill="none" stroke="black" d="M840.35,-739.28C828.16,-732.67 815.48,-724.56 805.17,-715.18 797.42,-708.14 790.42,-699.3 784.51,-690.64"/>
<polygon fill="black" stroke="black" points="787.36,-688.6 778.99,-682.1 781.49,-692.4 787.36,-688.6"/>
<text text-anchor="middle" x="863.17" y="-703.98" font-family="Times,serif" font-size="14.00">t=10.0,p=15.75</text>
</g>
<!-- n3&#45;&gt;n6 -->
<g id="edge39" class="edge">
<title>n3&#45;&gt;n6</title>
<path fill="none" stroke="black" d="M907.44,-734.44C919.71,-720.89 935.09,-703.9 948.37,-689.22"/>
<polygon fill="black" stroke="black" points="950.99,-691.55 955.1,-681.79 945.8,-686.86 950.99,-691.55"/>
<text text-anchor="middle" x="990.67" y="-703.98" font-family="Times,serif" font-size="14.00">t=15.0,p=20.0</text>
</g>
<!-- n16&#45;&gt;n17 -->
<g id="edge41" class="edge">
<title>n16&#45;&gt;n17</title>
<path fill="none" stroke="black" d="M1283.93,-1714.53C1284.77,-1702.24 1285.78,-1687.35 1286.7,-1673.96"/>
<polygon fill="black" stroke="black" points="1290.21,-1673.84 1287.4,-1663.63 1283.23,-1673.37 1290.21,-1673.84"/>
<text text-anchor="middle" x="1338.67" y="-1685.38" font-family="Times,serif" font-size="14.00">t=15.0,p=22.0</text>
</g>
<!-- n29&#45;&gt;n30 -->
<g id="edge42" class="edge">
<title>n29&#45;&gt;n30</title>
<path fill="none" stroke="black" d="M477.65,-1257.09C485.36,-1244.32 494.79,-1228.69 503.15,-1214.85"/>
<polygon fill="black" stroke="black" points="506.28,-1216.43 508.45,-1206.06 500.28,-1212.81 506.28,-1216.43"/>
<text text-anchor="middle" x="549.67" y="-1227.68" font-family="Times,serif" font-size="14.00">t=12.0,p=18.0</text>
</g>
<!-- n8&#45;&gt;n9 -->
<g id="edge43" class="edge">
<title>n8&#45;&gt;n9</title>
<path fill="none" stroke="black" d="M865.71,-418.9C867.88,-406.49 870.52,-391.43 872.88,-377.94"/>
<polygon fill="black" stroke="black" points="876.35,-378.46 874.63,-368.01 869.45,-377.25 876.35,-378.46"/>
<text text-anchor="middle" x="924.67" y="-389.76" font-family="Times,serif" font-size="14.00">t=10.0,p=15.0</text>
</g>
<!-- n21&#45;&gt;n22 -->
<g id="edge44" class="edge">
<title>n21&#45;&gt;n22</title>
<path fill="none" stroke="black" d="M402.9,-523.64C402.31,-511.36 401.58,-496.47 400.93,-483.08"/>
<polygon fill="black" stroke="black" points="404.41,-482.57 400.43,-472.75 397.42,-482.91 404.41,-482.57"/>
<text text-anchor="middle" x="454.67" y="-494.5" font-family="Times,serif" font-size="14.00">t=15.0,p=22.0</text>
</g>
</g>
</svg>
